<?xml version="1.0" encoding="UTF-8" standalone="no"?>
<svg xmlns:rdf="http://www.w3.org/1999/02/22-rdf-syntax-ns#" xmlns="http://www.w3.org/2000/svg" version="1.1" xmlns:cc="http://creativecommons.org/ns#" xmlns:dc="http://purl.org/dc/elements/1.1/" viewBox="0 0 470 400">
 <path fill="#dda63a" d="m235 2.1895c-26.495 0-51.529 6.3212-73.729 17.477l1.8105 3.4668c21.482-10.764 45.25-16.628 69.934-16.926v29.719c-20.131 0.29936-39.153 5.1856-56.117 13.609l1.8047 3.4551c16.713-8.2737 35.162-12.806 54.312-13.098v26.91c-14.969 0.29468-29.134 3.8948-41.811 10.082l-0.002-0.002c-9.4617 4.6167-18.097 10.669-25.609 17.891l-19.04-19.058c9.62-9.3339 20.476-16.939 32.168-22.725l-1.8027-3.4551-0.002-0.002c-12.239 6.0792-23.418 13.99-33.131 23.416l-21.07-21.054c12.07-11.783 25.688-21.405 40.367-28.762l-1.8106-3.4668c-32.087 16.125-58.21 42.403-74.117 74.617l-0.002-0.002c-10.835 21.946-16.951 46.62-16.951 72.705 0 15.956 2.2778 31.55 6.6309 46.447l3.8926-0.97851c-4.0928-13.96-6.3259-28.553-6.5059-43.482h29.715c0.1832 12.448 2.1006 24.611 5.6211 36.223l3.8535-0.9707c-3.4465-11.297-5.3196-23.136-5.5059-35.252h26.908c0.0778 3.958 0.3971 7.8757 0.92773 11.742-1.8709 0.23513-3.6309 0.84766-3.6309 0.84766l-0.83398 2.6992c-1.8262 0.33872-2.9902 3.375-2.9902 3.375-1.4964 0.50649-2.6592 2.3607-2.1602 2.8672 0.49748 0.50649-0.83399 0.67382-0.83399 0.67382v3.7129l-0.83008 1.1816 0.16602 4.0469c0.99888 0 0.83398 1.8574 0.83398 1.8574-1.6632 0.16776-1.334 2.3633-1.334 2.3633l-3.4883 1.1797-0.66406 1.0117-4.3223-0.16992-1.1641 1.1816-0.008-0.008c-0.36751-1.0964-0.72313-2.1976-1.0606-3.3047l-3.8535 0.9707c0.11787 0.38878 0.24962 0.77263 0.3711 1.1602h-4.9258l-0.33008-0.8418-1.6641-0.33984-0.16796-1.8555-2.4922 0.16797-0.49805 1.0137-2.6602 0.16602c0.16609 1.688-2.6604 4.2204-2.9902 3.5469-0.33688-0.67585-2.1647-2.5332-1.332-2.8672 0.83201-0.33951 2.9961-0.67969 2.9961-0.67968v-1.1797l-6.1543-0.16797-0.66211 1.0137-2.498 0.16797v2.6992l-1.1602 0.33789c-0.83279 0.5041 0.16406 2.3633 0.16406 2.3633 1.1634 1.1792-0.16406 3.0332-0.16406 3.0332-0.99888 1.013 0.82812 2.8711 0.82812 2.8711 1.3318 0.33474-0.82812 1.3476-0.82812 1.3476 0.32983 1.6864 1.3281 2.1934 1.3281 2.1934-0.99888 1.6864 0.66797 2.5293 0.66797 2.5293l0.16406 2.8711 1.1641 0.67578v1.8516l0.66406 1.1816h2.6602l-0.16602-4.2168c-2.3284-2.7002 1.9929-3.3757 2.1621-2.3652 0.16765 1.013 1.9941 1.5195 1.9941 1.5195 0.33296 2.5316 3.1594 4.0472 3.9883 1.5195 0.83201-2.534 1.4971-1.0132 1.9961 0.16601 0.49905 1.1823 3.6543 4.0527 3.6543 4.0527h2.4941l0.33594 2.3613c2.8251-0.16936 3.653 0.17267 4.8164 4.0488 1.1665 3.8786 4.3242 4.8906 4.3242 4.8906l2.3281-0.16797c0-2.0212 2.3262 0.34052 2.3262 1.3535 0 1.0082 4.4883 4.8887 4.4883 4.8887l4.4863 1.0117 0.83398 0.67578c2.7545 3.4781 5.6882 6.8452 8.8184 10.07l-21.012 21.012c-18.596-19.054-31.878-41.922-39.18-66.818l-3.8926 0.97852c7.6593 26.211 21.789 50.236 41.637 70.08 13.441 13.444 28.804 24.266 45.459 32.24l1.9727-3.498c-15.763-7.512-30.342-17.636-43.188-30.178l21.01-21.01c10.92 10.599 23.372 19.052 36.836 25.209l1.9609-3.4785c-13.157-5.9708-25.325-14.202-35.986-24.537l3.9082-3.9082c0.20073 0.37717 0.36405 0.84372 0.44141 1.4297 0.3314 2.534 1.4922 2.0254 1.4922 2.0254l9.4785-0.16797 3.3242-2.8711 8.4785-0.16601c4.3214-0.16856 1.6609-6.0742 0.83203-6.0742-0.48824-0.38474-0.58577-1.1762-0.52149-2.0527 6.7578 5.2044 14.09 9.4815 21.838 12.773l1.959-3.4707c-8.9301-3.7478-17.301-8.8611-24.838-15.24l-4.4785-4.1738 20.939-20.938c6.7519 6.3699 14.612 11.167 23.133 14.219v0.002c2.3059 0.82716 4.6612 1.5193 7.0547 2.0859-0.41638 0.36088-0.64303 0.6977-0.54882 0.9375 0.33297 0.84202-1.3281 1.6894-1.3281 1.6894l-1.4961 0.50195-0.9961 1.5195-1.9961 0.67579-0.33398 3.5449-0.99415 0.67187v1.5215l-1.166 0.33398v0.84571l-1.6621 0.16796 0.99609 2.5312 1.334 0.67579c2.3268 0.33474 1.3281 3.207 1.3281 3.207l1.3281 0.16601 0.66797 1.8535 1.3262 2.7012c0.49983 2.0275 1.9977 1.5202 2.6621 1.3516 0.66435-0.16618 1.3281 2.0234 1.3281 2.0234l6.6465 0.16797s-0.32943 0.67651 0.83398 1.0137c0.64126 0.18476 3.245 0.36706 5.5176 0.41211v2.9688c-12.296-0.24556-24.209-2.7912-35.248-7.4219l-1.959 3.4707c11.641 4.948 24.214 7.6709 37.207 7.9219v26.91c-17.706-0.27285-34.806-4.1647-50.494-11.283l-1.9609 3.4785c16.285 7.4411 34.056 11.5 52.455 11.775v29.711c-23.602-0.28377-46.38-5.6338-67.111-15.51l-1.9707 3.498c21.909 10.487 46.059 16.031 71.068 16.031 26.234 0 51.511-6.1304 74.26-17.641 15.419-7.802 29.693-18.051 42.27-30.629 13.222-13.219 23.892-28.305 31.826-44.645l-0.0195-0.041c10.743-22.127 16.445-46.562 16.445-71.883 0-21.533-4.1244-42.423-11.963-61.803-8.1785-20.239-20.406-38.827-36.307-54.727-15.959-15.961-34.63-28.216-54.957-36.396l-0.006 0.01563c-19.33-7.7716-40.14-11.866-61.58-11.866zm1.9824 4.0176c20.24 0.24478 39.871 4.2339 58.125 11.584l0.006-0.01563c19.22 7.7428 36.92 19.215 52.168 34.1l-17.803 17.807c-0.61428 0.15377-1.2625 0.22406-1.7266 0.02148-1.1658-0.50411 0.49609-1.6875 0.49609-1.6875v-1.3477l-0.99609-1.0117s-2.8277 0.33772-2.9922-0.16797c-0.16687-0.50649-0.66406-2.6992-0.66406-2.6992l-0.16797-2.8691-1.1621-0.50391-0.16797-1.0137-1.8262 0.16602v-2.0234l-1-0.33594-0.9961-0.50781-0.16601-2.0234-3.6562-0.16797-1.1641-1.6875-1.3281-2.0254-4.1562-0.33594-0.99805-1.0117-1.6621-0.33789-1.1641-0.50586-0.49804 0.84375-3.1602 0.16797-0.16406 1.0117c-0.99135 0.50329-3.6668 0.47159-5.7734 0.4668-3.3133-1.6847-6.6906-3.2341-10.133-4.627l-1.4512 3.6953c2.7714 1.1244 5.5029 2.3483 8.1895 3.668-0.19678 0.59036-0.43603 1.0137-0.8086 1.0137-0.82966 0-0.5 2.1953-0.5 2.1953s2.1657 0.000988 2.8301 0.16797c0.66278 0.16697 0.66211 1.8535 0.66211 1.8535 2.4952-0.16698 3.4947 3.2072 3.1602 4.0508-0.33296 0.84282 0.99804 0.8418 0.99804 0.8418s-0.001 2.7015-0.33593 3.375c-0.32983 0.67584 2.1638 1.182 2.8281 2.1934 0.66435 1.013-0.33533 4.3861-0.83203 4.5547-0.49827 0.16936 1.3286 0.67394 1.1641 1.5176-0.16844 0.8452 0.49876 0.000663 0.66407 1.3516 0.1653 1.3485 0.5 4.2168 0.5 4.2168l2.3242 0.16992c0.33452-2.1929 4.6199-2.2774 5.3203-2.0254 2.8259 1.0122 4.9902 5.3988 4.9902 6.4102s-1.832 1.1816-1.832 1.1816l0.0762 1.0938-5.832 5.832c-0.59932-0.37715-1.2033-0.55607-1.5488-0.3457-0.82966 0.5041-0.5-3.5449-0.5-3.5449s1.4977-1.0096 2.1621-0.50391c0.66515 0.5049-5.6494-8.4354-6.9805-7.5918-1.3287 0.84361-4.3196-0.84379-4.1543-2.3633 0.1653-1.5171-5.9844-6.5801-5.9844-6.5801s-1.9967-1.3462-2.3281-0.33398c-0.33297 1.0114-0.99732 1.6854 0 2.1895 0.99575 0.50728 0.82954-0.84206 1.9922 0.33789 1.1634 1.1807 3.3281 2.7007 2.4961 3.7129-0.832 1.0138-1.8301 1.3496-1.8301 1.3496l1.166 1.3516h1.8281l0.33203 2.8652s1.9943 1.0146 2.4941 2.1953c0.3249 0.76823 0.41456 1.313 0.31641 1.793-3.706-2.8404-7.5842-5.4016-11.607-7.6758 0.0453-0.31342 0.0532-0.61428-0.0176-0.86524-0.3322-1.1815 1.3305-1.6875 2.1602-0.33984l1.6621-0.16602 0.33204-1.5195-2.3242-1.8535h-1.8301s-0.16668 1.3491-1.3301 0.8418c-1.1634-0.50729-0.49956-0.33686-1.4961-0.50781-0.90175-0.15211-0.71494 1.7058-0.54883 2.5762-2.5699-1.3237-5.1913-2.5377-7.8633-3.6309v0.002c-11.294-4.6213-23.445-7.1606-35.98-7.4023v-14.826c1.079 0.02531 1.5574-0.38581 1.6719-0.8418 0.16531-0.67584 0.32925-0.84472 1.3281-1.0117 0.99653-0.16936-0.16558-2.1939-1.1621-2.0254-0.71782 0.12114-1.4302-0.11012-1.8379-0.56055v-7.6543c15.956 0.24323 31.427 3.4243 45.816 9.2578l1.4492-3.6953c-14.847-6.0144-30.804-9.2892-47.268-9.5332v-29.719zm27.842 7.0605-1.5664 1.0098-1.0645-0.67383-0.52539 0.85938 1.332 0.83984 0.25782 0.17188 0.26562-0.17188 1.834-1.1816-0.53321-0.85352zm7.5996 4.0801-1.3164 1.0664-0.84571-0.85937-0.70508 0.71484 1.1602 1.1797 0.32031 0.32226 0.34571-0.2832 1.668-1.3496-0.62695-0.79102zm-160.29 0.82812c-16.538 6.4454-34.28 13.032-45.016 29.998-6.278 9.922-7.1895 21.674-12.133 31.93 9.1579-8.6067 19.806-14.962 27.566-25.219 9.3308-12.332 17.436-26.051 29.582-36.709zm245.74 0c12.146 10.658 20.251 24.377 29.582 36.709 7.7606 10.257 18.409 16.612 27.566 25.219-4.9433-10.256-5.8548-22.008-12.133-31.93-10.735-16.966-28.478-23.553-45.016-29.998zm-97.434 2.0762c-0.70638 0.06301-1.413 0.35739-1.4961 0.69531-0.16844 0.67426-1.1602 0.84375-1.1602 0.84375l-3.8242 0.33789c-0.33374 1.013-2.3276 1.6879-2.4961 1.0137h0.002c-0.36586-1.4829-2.4955 1.8539-0.33008 2.5273 2.1607 0.67823 4.3184 0 4.3184 0l0.5-1.0098 8.3086 0.16797c0.66906-0.67584 0.99805-1.6855 0.99805-1.6855s1.9953-0.67697 2.8242-0.33984c0.83279 0.33872 0.16951-2.3605-0.66406-2.0234-0.82966 0.33713-2.4902 0.16797-2.4902 0.16797h-2.9941c-0.0827-0.58995-0.78972-0.75832-1.4961-0.69531zm-14.301 3.4004-2.1602 0.8418-2.3281 1.5176-2.4922 0.33984-1.332 1.5176 5.3203 0.50391 0.99609 1.6895 3.8281 0.33789 2.4902 2.5293c2.1654 0.67584 2.6627-0.33761 1.334-1.5176h-0.002l-2.1641-2.1934v-1.8555l-0.66406-0.67773-0.66602-2.3594-2.1602-0.67383zm-178.61 17.024c-8.4281 2.1582-15.508 7.6138-21.824 14.617-13.216 14.653-12.073 36.272-10.309 55.557 0.54468 5.954 0.24218 11.029-0.42578 17.129 3.9976-8.1956 10.547-16.015 18.256-21.838 17.188-12.983 36.007-29.763 36.268-51.84-5.6959 15.887-23.002 22.459-34.514 33.32-6.0868 5.7428-10.76 12.649-13.482 19.834l-0.41406-0.33203c1.4315-6.3551 4.1248-12.117 5.957-18.266 5.0108-16.817 4.122-36.928 20.488-48.182zm334.95 0c16.366 11.254 15.477 31.365 20.488 48.182 1.8322 6.149 4.5255 11.911 5.957 18.266l-0.41406 0.33203c-2.7229-7.1845-7.3956-14.091-13.482-19.834-11.511-10.861-28.818-17.434-34.514-33.32 0.26056 22.077 19.08 38.857 36.268 51.84 7.7088 5.823 14.258 13.642 18.256 21.838-0.66796-6.1-0.97046-11.175-0.42578-17.129 1.7642-19.285 2.9077-40.904-10.309-55.557-6.3167-7.0034-13.396-12.459-21.824-14.617zm-90.213 3.3516c-1.3475-0.027-3.3166 0.89568-3.1192 1.8945 0.16531 0.846 0.83146 1.6886 2.1602 2.0273l2.4961 0.84375s3.1097 3.6676 2.9922 1.8555c-0.33301-5.0609-2.6594-5.2339-3.4922-6.2461-0.20743-0.25282-0.58795-0.366-1.0371-0.375zm-52.119 2.0273-0.66601 1.5176 0.9082 0.41211 0.66797-1.5195-0.91016-0.41016zm3.1035 1.6602c-0.13409-0.1121-1.0242 1.2485-1.6953 1.5605 0.80928 0.41988 1.877 1.0293 1.877 1.0293 1.3287 0 2.1602 1.0122 2.1602 1.5195 0 0.50569 1.8281 0.33789 1.8281 0.33789l0.16992-1.1816-1.332-1.6875-1.1621-0.8418s-1.8281-0.1693-1.8281-0.67578c-0.00005-0.03156-0.006-0.05121-0.0176-0.06055zm-1.6953 1.5605c-0.75377-0.39108-1.2872-0.61855-0.44922 0.01758 0.12416 0.09481 0.28213 0.06012 0.44922-0.01758zm-5.5508-0.49024-0.10157 1.0098 1.4258 0.14258 1.0332 1.6465 0.83789-0.54102-1.1582-1.8516-0.13477-0.20703-0.24219-0.02344-1.6602-0.17578zm-38.428 4.2285c-0.90849 0.03091-1.7396 0.19949-1.6797 0.49805 0.1653 0.8412 1.4942 1.8555 1.4942 1.8555s2.4937 0.17045 2.6582 0.67773c0.17 0.5041 1.8327 0.67366 1.998 0.16797 0.1661-0.5065 0.82798-1.5195-0.66602-1.5195-1.4964 0-1.1603-0.84428-1.6602-1.3516-0.24995-0.25205-1.236-0.35904-2.1445-0.32812zm132.52 1.6699c14.859 15.222 26.321 32.885 34.061 52.066l0.002-0.002c7.3826 18.288 11.383 37.955 11.629 58.234h-29.717c-0.24088-16.177-3.4192-31.865-9.2344-46.488-0.8407-2.1139-1.741-4.204-2.6914-6.2715 0.27577-0.89412 0.78833-1.8488 1.8711-1.5195 1.6609 0.50649 0.5-3.7129 0.5-3.7129s-2.3266-1.688-2.1621-2.5332c0.16687-0.84203-2.3247-2.5273-2.1602-3.2031 0.16531-0.67585-2.1614-2.0242-1.9961-2.6992 0.16452-0.67584-1.1641-2.5332-1.1641-2.5332l-2.4941-2.3594-0.33399-1.5195-1.9922-0.16797-3.9883-4.8926 0.16407-1.3516-1.1621-0.16797v-1.8535l-1.1621-0.67578-1.832-0.16992-3.6543-4.0469-0.33399-1.8574h-1.8281l0.26758-2.8594 19.412-19.416zm-90.318 0.0098v1.5176l1.8262 0.16797-0.49414-1.3516-1.332-0.33398zm-139.87 0.0078 21.057 21.057c-9.7942 10.091-17.978 21.748-24.141 34.555-7.9933 16.6-12.591 35.128-12.883 54.688h-29.721c0.29234-24.271 5.9635-47.658 16.387-68.855l0.002 0.002c7.4184-15.088 17.229-29.077 29.299-41.445zm147.99 7.8711c-0.1867 0.02374-0.31055 0.08822-0.31055 0.21484 0 0.50648 0.66432 0.505 0.99414 1.5156 0.33453 1.0114 0.16806 2.7008 1.666 3.0371 1.4964 0.33872 1.8269 0.67376 1.9961 1.3496 0.1653 0.67584 1.9922 0.84375 1.9922 0.84375l1.332 0.67578 3.9883 3.373v-1.3477s-0.16918-1.3496-0.99805-1.3496c-0.82889 0-2.3259-1.0117-1.9961-1.6875 0.33531-0.67584-2.8262-1.3496-2.8262-1.3496s-2.8227-2.7-1.8262-2.3613c0.99809 0.33712 0.5-1.1816 0.5-1.1816s-1.9971 0.33769-2.4961 0.16992c-0.49982-0.16935-0.33398-1.6875-0.33398-1.6875s-1.1215-0.28607-1.6816-0.21484zm-91.383 1.2266-0.70704 0.71484 0.9961 1.0137 0.70703-0.7168-0.99609-1.0117zm-143.91 6.952c-0.42769-0.07785-0.66299 0.25487-0.99414 0.41992-11.41 14.55-19.018 30.487-19.018 50.023 0 24.132 13.88 40.981 15.611 63.646 3.571-23.649 23.424-40.448 33.703-61.258 4.0097-8.1175 6.5025-17.274 7.6133-26.207-1.4896 3.8056-3.8021 7.3471-6.9609 10.342-13.354 12.66-29.103 25.142-32.127 43.074-0.43184 2.5608-0.65621 5.1978-1.3984 7.6777-0.58339 0.25537-0.58405-0.41032-0.83008-0.57226l1.6582-22.244c1.6143-21.673-9.8195-45.795 2.7422-64.902zm404.79 0c12.562 19.108 1.1279 43.229 2.7422 64.902l1.6582 22.244c-0.24604 0.16194-0.24669 0.82763-0.83008 0.57226-0.74223-2.48-0.9666-5.1169-1.3984-7.6777-3.0241-17.933-18.773-30.414-32.127-43.074-3.1589-2.9947-5.4713-6.5362-6.9609-10.342 1.1107 8.9326 3.6036 18.089 7.6133 26.207 10.279 20.81 30.132 37.608 33.703 61.258 1.7315-22.665 15.611-39.515 15.611-63.646 0-19.537-7.6071-35.474-19.018-50.023-0.33114-0.16505-0.56645-0.49777-0.99414-0.41992zm-204.38 0.01953v29.719c-9.3393 0.27597-18.197 2.4873-26.195 6.2402l1.8223 3.4844 0.002 0.002c7.5658-3.5167 15.821-5.4935 24.371-5.7578v26.959c-3.5295 0.19609-6.9191 0.91136-10.102 2.0606h-0.0488l-0.16602-1.8535 0.83399-0.50586-1.332-0.50781-0.99804 1.3496-0.33008 1.5176-1.6621 0.33984v0.8418h-1.1621v1.002c-2.449 1.3287-4.7292 2.9306-6.791 4.7773l-19.07-19.07c4.9269-4.6299 10.474-8.3747 16.455-11.154l-1.8242-3.4844c-6.4323 3.0193-12.307 7.0314-17.42 11.852l-21.03-21.041c7.3756-7.0848 15.693-12.841 24.652-17.193 12.341-5.9903 25.912-9.3002 39.996-9.584zm3.9688 0.01367c12.031 0.24165 23.69 2.6863 34.527 7.127 2.9726 1.2182 5.8797 2.5926 8.7188 4.1074 0.12652 0.12264 0.30391 0.21485 0.51953 0.2793 4.6897 2.5397 9.1809 5.4798 13.432 8.8066 0.001 0.0085-0.001 0.01691 0 0.02539 0.16531 1.1807 1.4961 1.6855 1.4961 1.6855l0.75 0.0957c0.53064 0.44136 1.0556 0.89 1.5781 1.3438v1.4316c1.1593-0.2957 2.9518 1.0799 3.2793 2.2207l-20.664 20.666c-5.91-5.5709-12.667-9.9429-19.969-12.992-7.4239-3.1019-15.419-4.8395-23.668-5.082v-29.715zm-93.262 7.7363 19.062 19.061c-7.6827 7.9922-14.04 17.258-18.752 27.436l-0.002-0.002c-5.65 12.2-8.94 25.73-9.21 39.98h-26.912c0.2822-18.583 4.5456-36.512 12.357-52.832 5.8701-12.262 13.74-23.62 23.463-33.646zm169.79 12.74c2.321 1.358 4.0546 4.5116 3.7656 5.0996-0.33296 0.67425 1.9922 0.50781 1.9922 0.50781 0.33452-3.0389 3.1597-2.0266 3.3242-1.0137 0.17001 1.013 0.66406 3.2051 0.66406 3.2051l0.83203 1.5176 1.1641 1.1816 1.8281-0.16993 0.5 1.0137 2.1602 0.33789s1.8316 2.0232 1.9961 2.5312c0.16844 0.5049 2.6607 0.33613 3.3242 0.5039 0.66436 0.16935 1.6635 0.67667 1.8281 1.5195 0.16844 0.84441 1.166 2.1934 1.166 2.1934s1.9926 0.50627 2.1602 1.1797c0.16531 0.67346 0.99805 2.1934 0.99805 2.1934l1.6582 1.3516 0.16797 1.5176 1.8281 0.16992 0.5 2.0215 2.9883-0.16602 1.666-1.1816c0.50887-0.27788 0.97781-0.57491 1.4043-0.875 0.60355 1.3768 1.1902 2.7608 1.7441 4.1582 5.6098 14.138 8.681 29.294 8.918 44.924h-26.908c-0.0918-4.7705-0.53422-9.4794-1.2832-14.111 0.16837-0.68008 0.25507-1.2763 0.004-1.5312-0.49749-0.50648 0.5-2.8672 0.5-2.8672s0.66435-1.3527 0-2.7012c-0.66436-1.3509 0.16501-2.8672 0.66406-3.543l-1.3301-0.67579-1.3281-0.16796-1.0156 0.17187c-0.30501-1.0752-0.63805-2.1401-0.97851-3.2031l0.004-0.008 0.83007 0.16797v-1.0117l-1.207-0.33398c-0.23514-0.70393-0.49157-1.3995-0.74219-2.0977l-0.21289-3.4746-1.1621-0.84375 0.33008-1.3496-1.3281-0.50586 0.66601-2.1934-1.166-2.3613h-1.6836c-0.79667-1.6013-1.6339-3.1832-2.5176-4.7422 0.15998-0.11068 0.37187-0.21763 0.71484-0.3125 0.87714-0.24328 1.2027-0.28858 1.3203-0.27344l-0.1582-1.752-1.4961-1.0117-0.5-2.0234s-1.8247 0.33741-1.6602 1.3496c0.0366 0.22402-0.0914 0.39197-0.29883 0.53516-1.1569-1.8599-2.3747-3.6863-3.6582-5.4746 0.0396-0.0979 0.0747-0.19824 0.12695-0.29102 0.66749-1.1807 0.33411-1.8563-0.83008-2.1934-1.1665-0.33713-1.1662-0.33778-1.4961-1.6894-0.3314-1.3485-1.6621-1.6856-1.6621-1.6856l-0.5-2.0234-1.2422 0.77539c-0.65745-0.76066-1.3252-1.5162-2.0078-2.2598l0.5957-1.8965c-0.65357-0.13329-0.99343-0.50114-1.1719-0.89844l5.2109-5.2129zm10.748 25.752 0.01 0.10352s0.11747-0.0871-0.01-0.10352zm-117.54-21.717-0.63672 0.78125 0.99805 0.83984 0.63672-0.7793-0.99805-0.8418zm-3.8066 0.72656 0.16992 1.8555h2.4902c0.99809 0-0.83008-1.1797-0.83008-1.1797s-1.9946 0.16942-1.8301-0.67578zm110.55 0.30078-0.99023 0.11133 0.16601 1.5176 0.99219-0.11328-0.16797-1.5156zm-147.91 4.0313 21.031 21.033c-4.3629 4.6286-8.0558 9.8903-10.959 15.617-0.73806-0.0109-1.43 0.13296-1.6367 0.69141-0.49748 1.3485-2.6621 1.0137-2.6621 1.0137l-0.33203 0.67383-1.6641 0.33789-0.33007 1.0117-1.9961 0.33789 5-0.16c1.3311-0.16856-0.50121 2.8698-1.3301 2.7012l-2.3242 0.16796-0.83398 0.8418h-2.1602l-0.99609 1.3535-3.1562-0.16992s-1.8326 1.5177-1.6641 2.0234c0.16608 0.50648-0.3322 2.0254-0.83204 2.0254-0.49905 0-1.4971 1.5177-1.1641 2.0234 0.33453 0.50648-0.99609 2.1934-0.99609 2.1934l-0.33203 1.6894-0.9961 0.33594v4.5566l-1.9961 1.3496v2.0234l-0.91797 0.98242h-13.52c0.26739-13.372 3.2687-26.287 8.7012-38.125 4.438-9.6747 10.504-18.634 18.08-26.52zm138.53 0.33008c0.72429 0.65201 0.6464 0.91735 1.5625 1.582 0.3265 0.23592 0.63871 0.35338 0.93164 0.38476 0.54146 0.60141 1.0731 1.2095 1.5977 1.8223l-0.37305 0.49609c0 1.9405 0.90838 1.3763 1.8086 1.2188 0.27361 0.33502 0.54578 0.67162 0.81445 1.0098 0.0979 1.1244 0.10138 2.72 1.8652 2.4961 0.0235-0.003 0.0319-0.001 0.0547-0.004 2.1369 2.8781 4.0953 5.864 5.8828 8.9375l0.0527 0.17578 0.0488-0.002c0.28579 0.4938 0.56708 0.98986 0.84375 1.4883-0.36031 0.34736-0.5625 0.70117-0.5625 0.70117l-2.6602 0.33789v2.6992l-1.3301 0.50586 0.16797 1.6875 1.8281-0.16797s-0.001 2.0245 0.49804 1.1816c0.49984-0.84441 4.6561 0.16547 4.3223 2.1914-0.13553 0.83168 4.1573 3.035 3.6582 5.7344 0.34456 0.054 0.61577 0.15908 0.83789 0.29101 0.80137 2.3142 1.5056 4.6632 2.1289 7.0391l-0.3125 0.60351s0.26912 0.1813 0.61523 0.5293c0.51752 2.0758 0.95499 4.1752 1.334 6.291-0.12777 1.849-0.53784 3.6039-1.4531 4.1465-1.9931 1.1815 0.16797 0.50586 0.16797 0.50586l-0.33398 3.7109c0.49982 1.6872 1.329 0.84521 1.8281 0 0.26817-0.44853 0.53653-0.70795 0.82813-0.97852 0.25432 2.5411 0.42188 5.1015 0.47461 7.6816h-20.1c0.10106-0.13819 0.3457-0.45508 0.3457-0.45508l0.83008-2.3633 2.8262-0.83984 0.33203-2.1934-1.4922-0.16992s1.6594-3.0371 2.4922-3.0371c0.83279 0 6.3174-0.001 6.8125-0.33985 0.49905-0.33554 1.4961-3.0345 1.4961-3.541 0-0.50648 1.333-0.67634 1.8281-0.8457 0.49905-0.16697 1.6631-1.5156 1.9961-2.1914 0.33296-0.67902-0.82743-4.8978-1.4941-4.2227-0.66436 0.67584-2.1602 1.0117-2.1602 1.0117l-0.5 1.8555-0.83008 0.67578s0.16452 0.506 0 1.6875c-0.16687 1.18-1.6621 1.8555-1.6621 1.8555l-0.66406 0.84375s-4.0073 0.21707-4.4883 0c-1.4964-0.67425-0.49731-2.6998 0.5-2.5312 0.99575 0.16936-0.16993-2.8691-0.16993-2.8691l1.332-0.16797s0.16422-3.0371 0.66406-3.0371c0.49905 0-0.16454-1.013-0.83203-1.5195-0.66435-0.5041-1.4946-2.1911-2.1621-2.0234-0.66435 0.16777-3.3242 0-3.3242 0l-0.49805 1.0137-1.8301 0.33594s0.15753 1.3043-0.16211 1.6875c-1.0012 1.18-4.8221 3.7114-3.1621-0.50586l0.49805-1.0098v-1.5195l-2.9902-0.16797s-1.4961-0.50662-1.4961-1.1816c0-0.67505-0.16601-1.5176-0.16601-1.5176l-3.4922-3.8789-4.1543-0.50586-0.33398-0.8457-2.4902-0.33789c-0.37027-0.18761-0.73512-0.33045-1.0898-0.43359-1.1694-1.8636-2.4325-3.6752-3.793-5.4277-0.0372-0.13153-0.0828-0.28814-0.10547-0.38086-0.14811-0.59781-1.9818-3.1635-2.9805-3.2891-0.37389-0.41653-0.73566-0.84148-1.1211-1.25l20.664-20.664zm16.373 2.0703c-0.22895 0.021-0.35351 0.19021-0.35351 0.52734 0 0.6759 0.83452 1.013 0.5 1.8574-0.3298 0.84207 0.33369 1.5176 0.99804 1.5176 0.66749 0 1.1673 0.33706 1.8301 0.67578 0.66432 0.3356 1.1623 0.84094 1.6621 1.5176l1.6621-0.50586s0.16435-1.6873-0.5-1.1816c-0.6644 0.5057-1.1618-1.1811-1.8301-1.0117-0.66363 0.1693-0.99542-0.67476-1.6582-1.5176-0.66825-0.84525-0.49925-1.0131-1.332-1.5195-0.41599-0.25324-0.74957-0.38034-0.97852-0.35937zm-83.477 1.7168c7.7466 0.23855 15.248 1.8839 22.215 4.8066 6.8049 2.8517 13.098 6.9208 18.615 12.104l-1.0742 1.0742c-0.53986-0.5339-2.3477-0.86391-2.3477-1.4609 0-0.67585-1.6606-1.5192-1.4961-0.50781 0.16531 1.0114-1.1623 1.5192-1.5 1.1836-0.32983-0.33792-1.3281 1.0098-1.3281 1.0098 0 0.5049-0.33013 1.1815 0.66407 1.3516 1.002 0.16697 2.8296-0.67544 2.9941 0.33594 0.0573 0.34436 0.11209 0.63875 0.18945 0.91211l-6.5859 6.5859c-0.88111 0.0417-1.748-0.0723-1.748-0.0723-0.49748 1.5195-2.8238-0.16676-2.1602-1.1797 0.66514-1.0122 0.66406-1.6875 0.66406-1.6875l-0.82812-0.16992-0.99805 1.8574c-2.3276 0-2.9944 1.347-2.4961 2.1914 0.49827 0.84202-0.6643-0.1671-0.99804 1.0137-0.32983 1.1807 0.1699 1.179 1.168 1.6856 0.9981 0.50649-0.50108 0.5076 0.16406 1.3496 0.42322 0.53843 1.3797 0.39388 1.7227 0.52148l-1.2637 1.2637c-1.1456 0.35515-2.4551 0.0723-2.4551 0.0723-0.0366 0.33523-0.22375 0.57576-0.49024 0.74805-2.6782-2.2055-5.6273-3.9831-8.7676-5.3066 0.51543-0.37993 1.3669-0.36905 1.7774-1.5156 0.66827-1.8566 1.002-4.8906 1.002-4.8906s-2.6648-0.16898-2.8301 0.67383c-0.16452 0.84441-1.8262 1.3496-1.8262 1.3496s-1.3311 0.50585-0.83203 1.1816c0.49905 0.67585-0.99805 1.0098-0.99805 1.0098s0.092 0.45366 0.0547 0.89063c-2.6456-0.78531-5.3933-1.2723-8.207-1.4258v-26.955zm88.447 5.7207-1.9941 0.16992c0.4967 0.67425 1.4961 1.1788 1.4961 1.8555 0 0.67585-0.33287 1.1803 0.66601 1.3496 0.99496 0.16777 1.6627-0.16978 1.9941 0.67383 0.33296 0.84282 0.33327 2.194 0.16797 2.8691-0.16766 0.67584 0.16448 1.6856 0.99414 1.6856 0.83279 0 0.99805 0.17124 0.99805 0.67773 0 0.50489 0.99805-1.8574 0.99805-1.8574-0.83357-0.67426-1.498-2.1953-1.498-2.1953s-0.83008-2.3602-0.83008-2.6973c0-0.33713-1.1619-0.67599-1.6602-0.84375-0.49982-0.16936-1.332-1.6875-1.332-1.6875zm-15.848 0.66797-1.6621 0.16601 0.0976 1.0078 1.6621-0.16602-0.0976-1.0078zm1.0547 1.1914v0.84571h0.99805v-0.84571h-0.99805zm-1.3359 1.6875s-0.99714 1.35-2.9902 0.67579c0 0-0.33002 3.2031-1.3281 3.8789h-2.3281s0.49862 0.84428 0.9961 1.3516c0.49984 0.5057 1.6634 1.5172 0.5 2.1914-1.1634 0.67346 0.16406 0.50781 0.16406 0.50781s-0.16376 3.5432-1.6602 3.0352c-1.4933-0.5025-1.9941 1.857-1.9941 2.5312 0 0.67346 5.903 0.93187 4.9863 0-0.49825-0.5065 0.66406-1.6875 0.66406-1.6875s3.9926 0.33789 4.8223 0.33789c0.83123 0 1.4959-0.1689 0.99609-1.0117-0.4983-0.8452-1.9922-0.67383-1.9922-0.67383s-1.9984 0.50359-3.8262-0.50781c-1.8262-1.0114 0.33111-1.3496 0.66407-1.3496 0.33374 0 1.8265-1.1798 1.1621-2.0234-0.66435-0.84359 0-2.3633 0-1.6875 0 0.67425 1.8315 1.0104 2.166 0.50391 0.32983-0.5049-0.00041-2.0208-0.83398-2.5273-0.83203-0.5073 1.4983-0.84548 0.83398-1.6875-0.66354-0.8452-1.002-1.8574-1.002-1.8574zm3.3262 5.0625v1.1797h0.99805v-1.1797h-0.99805zm2.2383 0.59375-0.49805 1.0117 0.89258 0.45508 0.5-1.0137-0.89453-0.45313zm16.145 1.3691c-0.37144 0.11799 0.33901 1.9628-0.0976 2.2578-0.49901 0.3388-0.83221 1.0138-1.332 1.5195-0.49907 0.5073 0.99805 1.181 0.99805 1.6875 0 0.5057 0.33399 3.0371 0.33399 3.0371s1.1628 0.50543 1.3281 1.1797c0.16766 0.6758 0.00094 2.024 0.5 2.1934 0.49745 0.16941 1.4966 0.84333 1.1621 1.5176-0.33296 0.6775-0.33398 2.0254-0.33398 2.0254l0.66796 1.5195 1.3301 0.8418s0.49687-4.0482-0.33593-4.2168c-0.82966-0.17009-0.49415-2.5312-0.49415-2.5312s0.82871-3.207-0.5-3.207c-1.331 0-0.33321-1.6865-1.1621-2.1914-0.83278-0.5065-0.33461-2.8687-0.66601-3.543-0.33301-0.6751-0.33324-1.5181-1.166-2.0254-0.1037-0.0632-0.17936-0.0813-0.23242-0.0645zm-40.355 3.252-1.666 0.16601 0.0976 1.0059 1.666-0.16601-0.0977-1.0059zm-25.221 0.0586c-0.51912-0.0001-1.0176 0.12695-1.0176 0.12695l-2.6602 0.33985-0.16602 1.1797 1.8262 0.16992s0.83008 0.67554 0.83008 1.1797c0 0.50648 1.1676 1.0117 1.832 1.0117 0.66436 0 2.4922-1.3496 2.4922-1.3496s0.83233-2.362 0.16797-2.1934c-0.66749 0.16777-1.9957 1.1809-2.1602 0.16796-0.0842-0.5061-0.62541-0.63271-1.1445-0.63281zm-76.059 0.0996 16.281 16.279-1.5742-0.0566c-0.66748 1.5171-2.3301-0.17188-2.3301-0.17188-0.32983-1.0114-2.6562 0-2.6562 0 0 1.8582-3.1582-0.84179-3.1582-0.84179l-5.8203-4.2188c-3.3241-3.0365-8.3113 0.8455-8.4766 1.6875 0.0895 1.2791-1.0343 1.312-2.0879 1.082 2.6048-4.957 5.8947-9.582 9.8223-13.76zm65.41 0.42969-0.97461 0.2207 0.33008 1.5156 0.97461-0.21875-0.33008-1.5176zm5.4551 0.27148-3.6504 0.16797 0.0469 1.0098 3.6504-0.16797-0.0469-1.0098zm-31.225 0.33594v1.0117h1.3281v-1.0117h-1.3281zm8.5606 0.16406-0.14063 1.0039 1.1602 0.16797 0.14258-1.0039-1.1621-0.16797zm2.1445 0.51758-0.14063 0.99414 1.168 0.17578 0.14063-1.002-1.168-0.16797zm-13.459 0.33399-0.14062 1.002 1.1602 0.16797 0.14062-1.002-1.1602-0.16796zm27.363 0.0312-0.49805 0.16796 0.31445 0.96094 0.49805-0.16992-0.31445-0.95898zm40.266 0.42187-0.5 1.1797 0.91211 0.39844 0.5-1.1797-0.91211-0.39844zm-12.352 0.21875s1.0031 0.16735 1.834 0.41211c0.79422 0.96528 1.5543 1.9524 2.2852 2.957l-2.125-0.33008-1.3281-0.16797-2.4941-0.16992c-2.4921 1.6872-2.9902 3.7129-2.9902 3.7129-1.1476 2.1787-3.6398-0.14405-3.5684-1.6934l4.4277-4.4277c0.26305 0.029 0.52686 0.0469 0.80079 0.0469 0.99496 0 3.1582-0.33984 3.1582-0.33984zm-39.562 0.3418v1.0117h1.3281v-1.0117h-1.3281zm-16.826 0.19726-0.24219 0.98047 1.332 0.33985 0.24219-0.98243-1.332-0.33789zm-0.47071 1.3867-0.98437 0.16602 0.16601 1.0137 0.98438-0.16602-0.16602-1.0137zm19.75 0.002-0.99414 0.041 0.0469 1.1914 1.002-0.0469-0.0547-1.1856zm52.344 0.43555c-0.64369 0.0003-1.3508 0.0837-1.7676 0.16797-0.82966 0.1685-0.66435 0.84309 0 1.6875l1.9961-0.33984s1.4966-0.67399 1.1621-1.1797c-0.16725-0.25324-0.74694-0.33624-1.3906-0.33594zm-11.1 1.0274c0.63103 0.86819 1.2373 1.7506 1.8203 2.6465-0.19259 0.44098-0.25554 0.96485-0.13867 1.5566 0.49826 2.5324 1.3292 3.543-0.33008 3.543-1.6648 0-1.9961-1.3496-1.9961-1.3496s-1.3281-0.50628-1.3281 0.16797c0 0.67584-0.49983 2.025 0 2.6992 0.4967 0.67426-0.66701 1.6862-1.166 1.1797-0.49513-0.50649-1.8271-2.021-1.4941-2.5274 0.3314-0.50649-2.3293-3.713 0.33203-4.2188 2.6606-0.50649-0.16685-2.0258 0.83203-2.3613l1.3281-0.67578h1.3281l0.8125-0.66015zm-277.42 0.64c-2.6575 5.6035-3.7331 11.925-5.1387 18.033-2.9699 15.784-0.00121 32.545 4.2891 47.053 5.368 18.152 23.143 31.145 32.152 47.777l1.2324 0.98437c-1.3121-9.0281-1.9845-18.752 0.57226-27.369 3.8834-13.793 8.7692-27.192 11.332-41.488 1.9907-11.104 4.2806-23.562 2.9727-34.322-1.4855 5.7976-3.0166 11.532-6.1973 16.457-12.101 18.737-24.523 40.708-16.049 64.479-0.1962 0.25433-0.47141 0.58431-0.78906 0.41406-3.4038-7.8541-4.1594-16.798-6.3691-25.215-5.864-22.336-23.039-40.986-18.008-66.803zm453.55 0c5.0315 25.817-12.144 44.467-18.008 66.803-2.2098 8.4172-2.9653 17.361-6.3691 25.215-0.31765 0.17025-0.59286-0.15973-0.78906-0.41406 8.4738-23.771-3.9482-45.741-16.049-64.479-3.1807-4.9251-4.7118-10.659-6.1973-16.457-1.308 10.761 0.98198 23.218 2.9726 34.322 2.5628 14.296 7.4486 27.695 11.332 41.488 2.5568 8.617 1.8844 18.341 0.57226 27.369l1.2324-0.98437c9.0094-16.632 26.784-29.625 32.152-47.777 4.2903-14.508 7.259-31.269 4.2891-47.053-1.4056-6.108-2.4812-12.43-5.1387-18.033zm-227.1 4.3633 0.32227 4.0449-1.8301-0.63086h-1.1641l-0.49805-1.0137-0.99804-0.16797v3.7109l0.99804 0.84375 0.83399 0.8418 1.6621 0.16992 0.33203 2.0234 4.1543 0.16992 0.5 0.84375 2.4942 0.16797 4.8203 4.8906-0.33203 1.5195-0.83399 0.50781c0.33453 1.1807-2.1582 0.50586-2.1582 0.50586v1.0098l1.1602 0.16992 1.168 0.67382 1.6602-2.8672c1.8278-1.1807 2.657 0.50537 2.8262 1.5176 0.16452 1.0122-0.83398 0.84375-0.83398 0.84375v2.3633l0.99804 0.33593c1.6648 2.0251-0.66406 3.207-0.66406 3.207l-0.5 1.6855c-0.49905 1.5187-2.3262 1.1797-2.3262 1.1797l-0.66211 1.0137-1.998 0.50586 3.9473 0.50586c0.37527-1.3501 1.37-1.6867 1.8691-1.0117 0.49983 0.67584 0.5 1.8574 0.5 1.8574l1 0.16797-0.16797 1.8555 0.99805 0.33789v5.3984l1.1621 1.3496c1.9954-0.84123 1.9969 0.50627 0.99804 1.1797-0.99654 0.67346-0.33398 3.7129-0.33398 3.7129l-0.83008 0.84179v1.3516l-0.99805 0.67382v1.8555c-1.6632-0.84282-3.6583-0.50728-4.1582 0-1.4932-1.013-4.6523-0.67449-4.6523 0.16993 0.99575 1.3493-1.1602 1.6875-1.1602 1.6875l-1.168 1.3496c0.8328 1.688-0.82812 1.8535-0.82812 1.8535v3.207l-1.9961 1.8555 0.11329 2.9746c-1.021 0.0996-2.0548 0.1543-3.1016 0.1543-7.7824 0-15.131-2.7916-20.918-7.8887 0.10718-0.0552 0.2094-0.14694 0.30274-0.29882 0.83201-1.3485 2.1602-1.5176 2.1602-1.5176l0.5-1.1816 4.4883 0.16797c0.33296-1.8574 2.4941-1.1787 2.4941-0.33594 0 0.84362 1.6621 0.16797 1.6621 0.16797l1.1621-1.8555h1.8281l0.16602-2.0234 0.83203-0.50781v-3.0371c2.6606-0.84281 2.3262-3.373 2.3262-3.373l0.66797-0.84375-0.33203-1.1797c-1.3318-0.50809-0.66874-1.6895 0.16406-1.3516 0.83357 0.33712-1.1641-1.5195-1.1641-1.5195-0.99653 0.84521-1.8262-1.0117-1.8262-1.0117h-2.4961v-2.3613l-0.33398-2.1934-2.4902-1.1797-1.8281 1.6875-0.33399 2.3613v1.5176l-1.6621 0.33789-0.33398 4.5547-1.3281 0.50781 0.16602 1.6875-1.8281 0.50586-1.8281 0.50586-0.33203 2.1934-1.3281 0.8418-0.66992 2.0254-0.81055 4.7773c-2.3433-2.4532-4.2544-5.2126-5.6836-8.1934 0.30804-1.1974 0.34961-2.3281 0.34961-2.3281-1.4932-0.67425-0.66518-3.0357 0.99805-1.0098 1.6609 2.0212-0.99805-4.0508-0.99805-4.0508l-1.3301-1.1797-1.7246-0.16016c-0.25426-1.6267-0.38867-3.2829-0.38867-4.9609 0-0.69683 0.0299-1.389 0.0742-2.0781 0.47495-0.47346 1.043-0.22266 1.043-0.22266l0.99609 0.8418 1.498 1.1816 0.16601 1.0098-0.99804 0.50586-0.16602 1.3516 0.5 1.8555h1.3281c0.49827-2.6994 3.9918-2.6989 4.9883-1.0117l0.99805-2.3613c-2.3268-1.1807-0.0433-3.0397 0.62109-2.1953 0.66436 0.84441 2.2031-2.1914 2.2031-2.1914s1.1634 1.5174 0-0.50781 0.83008-3.0352 0.83008-3.0352c-0.33061-2.0236 2.1621-1.6875 2.1621-1.6875l0.16797-2.6973-2.3301-0.17187c-0.49513 2.3623-2.4914 0.33967-1.4941-0.16602 0.99888-0.50728 1.9941-1.5195 1.9941-1.5195v-1.6875l0.99805-0.33789 0.16406-1.6875h2.4961l2.1602-1.0117 0.5-0.84375 2.3262-0.16797 3.3242-3.0371-0.33008-1.3496c-1.9954 0 0-1.5176 0-1.5176l0.32813-2.5254h-1.8281l-0.32031-3.584c2.2623-0.53247 4.5979-0.8179 6.9766-0.84179zm101.24 9.7891-0.16992 1.3496 0.99219 0.1289 0.16992-1.3516-0.99219-0.12695zm-0.62109 4.5469-0.49805 1.0117 0.88867 0.45313 0.5-1.0117-0.89062-0.45313zm-172.51 6.7012c1.574-0.0936 2.7305 0.75977 2.7305 0.75977l2.3301-0.16602c0.57175 0.38681 0.95111 0.8295 1.209 1.2969-0.20716 1.5648-0.35317 3.1473-0.44922 4.7441-0.23445 0.43087-0.42969 0.70508-0.42969 0.70508-0.19462 0.29675-0.29682 0.78886-0.35351 1.3262h-6.3184l0.0234-0.14453-1.8281-0.16797c-1.9954-1.1823-0.99805-5.5664-0.99805-5.5664 1.382-2.0674 2.8598-2.7143 4.084-2.7871zm57.754 3.123-0.33008 0.8418h-0.83007l-0.17188 1.3516h1.002l0.16602 1.0098-0.66602 0.67578-0.33007 0.84375-1.332 0.34179-2.9922 2.8711-0.16407 1.3438-0.83007 1.1836-0.9961 2.5293-3.4941 0.16601-0.66601 3.0371 0.49414 2.5293 2.9922 1.1836 0.3379-1.6855 0.99414-0.50781 0.17187-1.6856 0.6582-1.1856 1.0039-1.1758 0.32813-1.3516 1.6621-1.0098 1.998-0.34179 0.83008-1.0098 0.33594-2.0195 0.11718-1.5195 0.7129-1.0176 1.9902-0.84375v-3.2031h-0.99414l-0.16406-1.1855-1.834-0.16602zm104.31 1.0254-0.17188 0.99414 1.8262 0.33399 0.17969-0.99414-1.834-0.33399zm-4.1602 1.4629-0.49219 0.27735-1.2383 0.70117-1.082-0.6836-0.52344 0.84961 1.3301 0.84375 0.25195 0.15821 0.25-0.14258 1.0039-0.56445 0.125 0.31054 0.92383-0.375-0.33594-0.84179-0.21289-0.53321zm14.49 7.0098h26.906c-0.28299 18.475-4.5454 35.993-11.936 51.766h0.002c-6.0292 12.871-14.141 24.582-23.924 34.672l-0.73633-0.73633c-0.0989-1.8576-0.22851-4.2637-0.22851-4.2637l-0.83399-0.84375-0.16406-4.2207c0.66436-2.1929-3.1588-5.3989-3.4902-4.7207-0.33297 0.67266-2.4941 0.16516-2.4941 0.8418 0 0.67267-1.3276 4.0482-0.66407 5.2305 0.0376 0.0669 0.0498 0.11799 0.0762 0.17773l-10.451-10.451c8.1505-8.4732 14.617-18.14 19.285-28.588 5.4032-12.101 8.388-25.25 8.6523-38.863zm30.881 0h29.713c-0.29624 24.319-6.027 47.344-16.014 67.939h0.002c-7.6063 15.686-17.677 29.962-29.725 42.309l-20.959-20.959c10.268-10.581 18.546-22.59 24.645-35.57h-0.002c7.8121-16.624 12.06-34.846 12.34-53.719zm-58.172 0.002h23.32c-0.26739 13.119-3.1925 25.593-8.2246 36.928-4.5383 10.222-10.79 19.523-18.42 27.51-0.31565-3.3895-1.0859-7.123-1.0859-7.123l-1.332-0.67382 0.33399-4.0508h-1.8281l-2.9922 3.8828-0.33008 1.0723-1.7051-1.7051 0.87304-0.88477-0.16797-2.0273 1.1641-1.0098v-1.6856l0.99804-0.33789 0.16602-3.7109 0.82812-0.16992v-8.0976l-2.4922-2.3633c-0.16452 0.8452-2.8242 0.8457-2.8242 0.8457s-0.66501 1.1777-1.1641 1.1777c-0.49748 0 0.66577 1.5176 0.33203 2.5312-0.33139 1.0106-1.6621 1.0098-1.6621 1.0098l-2.4961 0.67773-0.66406 0.84375h-2.6602l-0.22266-1.4746c0.27328-0.31983 0.53028-0.65042 0.79687-0.97461l2.0859-0.58789 1.6621-0.84179 0.83203-1.6895c0.16452-1.6848 2.1621-1.5176 2.1621-1.5176s3.823-3.2072 3.9883-4.7227c0.16922-1.5194 1.4981-5.7363 3.8242-5.7363h4.3223c1.6609-0.67664 1.1621-2.8691 1.1621-2.8691l2.1621-0.33594 0.33203 1.1816s2.9936 0.33656 3.3242-0.16992c0.33452-0.50411 0.99922-1.688 1.832-1.1816 0.83044 0.5057 3.4902-1.1797 3.4902-1.1797 0.16531-1.1807 4.3203-0.67578 4.3203-0.67578l0.5-1.5176s-2.8252-3.8808-3.3242-3.8808c-0.49983 0-3.1584-2.3621-3.4922-1.5176-2.6566-0.67426-2.4922-4.3867-2.4922-4.3867l-0.99805-2.3613c0-1.3517-2.49-4.2197-2.9922-3.8809-1.0403-0.77375-1.3078-1.5984-1.2422-2.3184zm-169.11 0.0156h11.658l0.11718 0.94922-2.4922 2.6992 0.33007 2.6992-1.4941 0.50586-0.33203 1.1816-0.66406 3.541 1.6621 0.17187c0.82887-0.33872 0.66435 2.1918 0 2.5274-0.66749 0.33872-2.4957 1.0133-1.4961 1.6875 0.9981 0.67744-2.6602 0.50711-2.6602-0.50586 0-1.0098-1.9955-1.8563-2.4922-1.5176-0.29062 0.19509-0.67847-0.33755-0.96484-0.82813-0.67915-4.3062-1.0821-8.6828-1.1719-13.111zm17.186 0h0.80859c0.43645 0.0861 0.75977 0.26953 0.75977 0.26953l2.3281 0.16797 0.23047-0.4375h7.916l0.66406 4.3164-2.1621 1.8574c-1.8278 1.013-1.8275 3.3744 0.16797 3.8809 1.3287 0.16697 0.82943 3.3734-1.166 1.1797-2.9896 0 1.667 2.7008 0.33594 2.0234 2.9935 1.5195 2.3242-1.3496 2.3242-1.3496l1.5039-1.207c0.63751 3.3119 1.5188 6.5571 2.6426 9.7109h-0.002c3.0505 8.5535 7.8581 16.448 14.25 23.223l-21.01 21.012c-1.3651-1.4212-2.6768-2.8798-3.9434-4.3691 0.25077-1.0498 0.91015-2.1406 0.91015-2.1406 2.1607-1.3509-0.5-3.5391-0.5-3.5391 0.33451-2.0275-1.1621-4.3906-1.1621-4.3906-2.9896-2.0244-2.1621-5.9043-2.1621-5.9043v-2.7012c-2.4921-2.3591 0.99805-2.6992 0.99805-2.6992 1.1618-2.0204-0.83203-3.541-0.83203-3.541l-0.16602-2.1934-2.6602-0.33789-0.33008-7.9297-5.9844-8.6035c-1.1665-0.34031-0.33399-2.3613-0.33399-2.3613 1.4964-0.84441-0.33398-2.8672-0.33398-2.8672l-0.16602-3.7129 3.4902-0.33789 0.83203-1.3476h1.6621l-0.16602-4.3887c0.31023-0.82 0.78504-1.1664 1.2559-1.2812zm41.568 0.002h1.8887c0.0649 1.1831 0.19474 2.352 0.37305 3.5098l-1.0332 0.30078-0.33398-0.67578-0.49805 1.8555h-2.9902l-0.16602-2.0254 1.8281-0.50586 0.66601-1.0117 0.26563-1.4473zm49.264 2.3008c-0.27577-0.0447-0.579 0.16169-0.82812 0.83594v2.1934s2.3266 3.7131 3.1562 4.2188c0.83284 0.5072 2.1723-0.61118 1.3301-1.1797-2.4898-1.6872-2.3239-3.8809-2.9883-5.4004-0.14419-0.32679-0.39415-0.62324-0.66992-0.66797zm-86.934 1.5098 0.16797 1.1797h0.83007c1.3287 2.3631 0.16602 8.0996 0.16602 8.0996s-1.9936 0.16604-2.3281-0.84375c-0.32982-1.0122-1.1624 2.1947-0.49804 2.7012 0.66435 0.50329 2.9929-0.001 3.1582 1.8555 0.16452 1.8542 1.4961-1.1816 1.4961-1.1816v-11.473l-2.9922-0.33789zm79.955 3.3828-2.9922 2.1894c1.4956 0.17095 1.6609 1.6909 1.8301 2.3652 0.3596 1.471 0.329-2.3644 0.99414-2.1934 0.66436 0.16777 0.16797-2.3613 0.16797-2.3613zm-66.49 1.375c1.411 0.48799 2.9941 2.7811 2.9941 3.1719 0 0.50569 6.6484 0.16602 6.6484 0.16602 1.8278 1.1807 2.4922 4.2188 2.4922 4.2188 1.8309-2.3639 5.6513-0.17125 2.8262 1.1797 2.6574 1.6872 2.6582 3.2051 2.6582 3.2051 2.1638-0.67426 2.1641 1.013 2.1641 1.5195 0 0.50648 0.66407-2.5293 0.66407-2.5293-2.4937-1.8566 3.325-2.5326 1.6641 0.8418l-1 1.5195 1.6641 1.3496 0.16406 3.8809c3.6586-0.33871 2.6602-4.8945 2.6602-4.8945l1.6621-0.33594c0-1.5195 1.1621-0.67578 1.1621-0.67578-0.80792-3.9899 0.78267-5.6683 1.834-6.3359 1.3251 2.4646 2.9427 4.786 4.8496 6.9141l-19.061 19.062c-5.8803-6.2584-10.331-13.519-13.195-21.391-1.275-3.5118-2.2224-7.1486-2.8516-10.867zm150.57 3.9258c-1.3635-0.085-3.1218 0.93763-2.623 1.6133 0.9981 1.3485 2.6575 0.67554 3.3242 0.8457 0.66435 0.1685 1.3284 0.50247 0.66406-1.5195-0.20763-0.63285-0.74548-0.90082-1.3652-0.93945zm-158.05 2.373a0.7051 0.7156 0 0 0 -0.70508 0.71679 0.7051 0.7156 0 0 0 0.70508 0.71485 0.7051 0.7156 0 0 0 0.70507 -0.71485 0.7051 0.7156 0 0 0 -0.70507 -0.71679zm-1.8262 2.2676-2.5 1.6934-1.6602-1.0098v4.0469l2.6641 3.5371 0.99414-2.3613 0.33789-1.5176-1.168-0.50196 0.16407-2.5273 1.0039-0.17578 0.16406-1.1836zm61.502 4.2226-1.4961 0.16797 0.16797 2.3633 0.9961 0.84375 1.8281 0.50391s2.4949-0.67562 2.6602-2.6992l-3.8242-0.16602-0.33203-1.0137zm20.955 1.2871c1.3929 0.002 1.1057 3.3707 1.0195 4.5-0.98457 0.42406-1.9926 0.80295-3.0254 1.127v-3.709l1.6621-1.8555c0.12471-0.0421 0.239-0.0627 0.34375-0.0625zm-35.213 1.9453c5.8001 5.202 13.014 8.2986 20.748 8.9414l-0.008 0.0605s-0.62045 1.5198 0.12695 1.7734c0.74818 0.24887 0.49505 0.37739 0.8711 0.75586l-0.37696 0.88672c-0.61483-0.8348-0.99244 0.6336-0.62109 1.0137 0.3768 0.38086-0.87109 0.12554-0.87109 0.63282 0 0.5065-0.37526 0.75887 0 1.0117 0.37292 0.25364-0.12594 0.38289-0.625 0.75977-0.4998 0.38086 2.1172 0.50781 2.1172 0.50781s-0.49508-1.0137 0.12696-1.0137c0.11851 0 0.18174 0.01 0.27734 0.0117v1.6719c-0.23012-0.0549-0.44466-0.0912-0.69336-0.16796v1.1797l-1.3301 0.16993 1.166 1.3476 0.85742 0.10938v2.7598l-0.0293 0.16797c0 2.1929-5.4845 0.67207-5.9844 0.16797l-0.16602 3.0371-0.99804 0.16601 0.16601 2.0274-0.16601 2.8691 1.8281-0.33789v1.1816l4.4902 0.16797 0.85937-0.91602v3.1172l-0.0312 0.16016-2.9961 0.33789-1.3262 0.67578-0.5-1.0137h-1.3281l-0.82031 1.1445c-3.9419-0.568-7.7938-1.5053-11.514-2.791v-0.002c-8.2245-2.8478-15.811-7.4009-22.311-13.508l19.061-19.064zm-158.46 1.63c2.236 14.702-3.5901 27.679-4.9434 41.654-1.1122 11.486 0.90526 22.658 5.3613 32.311 1.3197 2.8588 3.717 5.4396 4.3887 8.3535-4.309-3.8803-7.3628-8.8397-10.33-13.645-13.893-22.497-43.03-37.117-45.014-64.484-0.99655 12.171 0.058461 25.075 4.1191 35.895 5.6353 15.015 16.477 26.553 28.967 36.398 12.915 10.18 28.336 18.126 40.102 27.076-2.3201-5.8558-6.0861-11.266-7.6172-17.449-6.921-27.95-3.058-60.26-15.034-86.11zm364.38 0c-11.975 25.848-8.1121 58.161-15.033 86.109-1.5311 6.1829-5.2971 11.593-7.6172 17.449 11.766-8.9506 27.186-16.896 40.102-27.076 12.49-9.845 23.331-21.384 28.967-36.398 4.0607-10.819 5.1157-23.723 4.1191-35.895-1.9838 27.368-31.12 41.988-45.014 64.484-2.9673 4.8049-6.021 9.7642-10.33 13.645 0.67163-2.9139 3.0689-5.4947 4.3887-8.3535 4.4561-9.6527 6.4736-20.824 5.3613-32.311-1.3532-13.975-7.1794-26.952-4.9434-41.654zm-144.85 0.57813c0.44452 0.009 0.74771 0.22258 0.56055 0.79297-0.49904 1.5195 0 2.1934 0 2.1934 2.1607-2.0252 3.9895 0.1685 3.8242 0.67578-0.17001 0.50569 1.1625 1.0124 1.9922 0.50586 0.83279-0.50569 1.829 1.5196 1.4961 2.5293-0.33453 1.0122-3.323 0.845-3.4883-0.16797-0.17001-1.013-0.66901-0.67445-0.99805-0.16797-0.28433 0.43048-1.4027 0.73048-2.2441 0.50195l-0.71289-0.71289c0.0763-0.18358 0.23456-0.36032-0.0332-0.63476-0.24418-0.24705-0.5296-0.24987-0.85352-0.25l-1.5176-1.5176c0.0147-1.0334 0.31015-2.3546 0.20508-2.7852-0.10331-0.42141 1.0287-0.97751 1.7695-0.96289zm-108.15 0.625-1.1582 0.16602-0.17382 1.3516 1.332 0.16797v-1.6856zm207.77 1.4707c-0.68982 0.0335-1.5058 0.41257-1.9629 0.72266l0.55273 0.8418c0.63145-0.42777 1.4596-0.63369 1.6445-0.53907-0.0164-0.006-0.0387-0.0348-0.0449-0.0547l0.98633-0.16602c-0.0517-0.32441-0.2476-0.5762-0.54688-0.70898-0.1845-0.0811-0.39896-0.10686-0.6289-0.0957zm-207.3 1.6953c-0.38938 0-0.70508 0.31844-0.70508 0.71679 0 0.39438 0.3157 0.71289 0.70508 0.71289 0.38937 0 0.70313-0.31851 0.70313-0.71289 0-0.39755-0.31376-0.71679-0.70313-0.71679zm82.896 0.80468c0.0375 0.44748 0.25 0.92188 0.25 0.92188l0.83203 0.33789-1.498 1.1816-1.3262 1.5195-1.666-0.50781-1.9922-0.16797-0.66406-1.1836-1.166-0.16797-0.16602 2.3613-0.83008 1.0117-1.9941 2.0274c2.093 0 0.69246 1.1361-0.32617 1.625v-6.752c2.1496-0.11787 4.261-0.43128 6.3184-0.91992 0.19781 0.18175 0.32422 0.31055 0.32422 0.31055h1.4941l0.0898-0.82227c0.78239-0.23277 1.5574-0.48934 2.3203-0.77539zm-81.738 2.7383a0.7051 0.7156 0 0 0 -0.70507 0.7168 0.7051 0.7156 0 0 0 0.70507 0.71485 0.7051 0.7156 0 0 0 0.70508 -0.71485 0.7051 0.7156 0 0 0 -0.70508 -0.7168zm62.838 0.5293c-0.84104-0.0386-1.5486 2.5634-1.877 3.2285 0 0 0.37565 1.3928 1.123 1.2656 0.7443-0.12642 1.2459-0.50638 1.8672-0.63281 0.62516-0.1264 0.87586-1.1398 1.125-2.1504 0.24991-1.0122-0.25-1.5195-0.25-1.5195s-0.62496 1.0122-1.6192 0c-0.12486-0.12663-0.24899-0.18589-0.36914-0.19141zm-65.957 1.3633-1.4102 0.16797v1.1836l1.4102-0.16602v-1.1856zm100.07 0h1.1621l0.16602 0.84766 5.0859 0.47851 0.23437 0.0234c1.9931 1.1823 0.99755 2.7 0.33398 3.0371-0.66749 0.33792-1.832 0.33789-1.832 0.33789l-0.32812 0.67578-4.3242 0.33594-0.33398 1.6894c-2.1607-0.3411-2.9905 2.024-2.4922 3.2031 0.49983 1.1792 0 2.1914 0 2.1914l1.8301 0.84571 2.3242-0.67188c0.33452-1.6896 1.8284-2.0273 3.1602-3.0371 1.3279-1.013 3.4917 1.8514 2.8242 3.2031-0.081 0.16423-0.12507 0.27809-0.1875 0.41797-2.5394 1.7441-5.2112 3.3079-8 4.6699v-0.002c-4.3747 2.1352-9.0388 3.7579-13.906 4.832-0.0778-0.0569-0.18359-0.13282-0.18359-0.13282l-1.8262-0.50585-0.16601-2.5293c-0.33296-1.6888-3.4919-1.6882-3.3242-0.50586 0.16479 1.1779-5.9369 0.51194-5.9746 0.50781v-4.6465l1.6562-1.7676 3.8223-0.8418c0.33139-1.6896 1.9922 0.33789 1.9922 0.33789 1.6632-0.17254 1.9961 1.0098 1.9961 1.0098l2.1621 0.33789c1.8262 0.50728 0.72274 0.68445 0.83007 1.3516 0.16453 1.0106 0.9961 0.67383 0.9961 0.67383l0.33398-2.1934 0.99805 0.16797-0.99805-1.1816-1.8301-0.8457-1.9941-0.8418c-1.3311-1.855 0.33305-1.5171 1.6641-1.3477h2.1602s2.4961 3.3724 2.4961 4.2168c0 0.8452 1.1621 1.0137 1.1621 1.0137l1.4941-0.16992 0.5 1.1797h1.4961l0.5 1.0117h2.9922l0.16601-1.5176-2.8301-0.50391-0.16406-1.6894-1.9922-0.50586c-0.66749-2.8656 0.49691-3.7111 1.3281-2.3594l0.99609 0.16602-0.33203-2.5312 1.1621-0.33789-0.33203-3.5449-0.99609-0.33399v-1.1816l4.1543 0.17188c-0.32983-2.1961 0.16797-3.209 0.16797-3.209zm120.31 7.7031-0.89062 0.45312c0.11046 0.22581 0.13354 0.46437 0.15234 0.69336 0.0251 0.29578 0.0571 0.63378 0.33985 0.84766 0.17863 0.13597 0.4051 0.17474 0.67382 0.12304l-0.1914-0.98046c0.0768 0.0119 0.17767 0.0819 0.20117 0.15429-0.0141-0.0334-0.0222-0.1493-0.0293-0.23437-0.0219-0.27829-0.0585-0.6583-0.25586-1.0566zm-0.96875 1.873-0.96484 0.24805c0.25305 1.0257 0.62223 2.036 0.63867 2.0781l0.93555-0.35547c-0.007-0.009-0.37043-0.99907-0.60938-1.9707zm-78.025 0.97852v3.207h1.1621v-3.207h-1.1621zm-35.922 0.83203-1.3242 0.83399 0.52539 0.85937 1.332-0.8418-0.5332-0.85156zm108.36 2.3184c-0.0776 0.79591 0.11265 1.7796 0.89844 1.9394l0.19531-0.99218c0.007 0 0.0171 0.006 0.0195 0.006-0.0807-0.0716-0.15518-0.47902-0.11914-0.85352l-0.99414-0.0996zm-133.2 1.8203v2.0293-2.0293zm132.64 0.0645c-0.30065 0.0231-0.70526 0.33983-1.0606 0.56445-0.99732 0.6337-0.62283 3.165 0 2.5312 0.62287-0.6305 1.37 0.00061 1.4961-1.8965 0.0615-0.95056-0.1349-1.2223-0.43555-1.1992zm-103.34 1.3086 3.9434 2.0039c0.49983 0.67267 2.6602 0.50586 2.6602 0.50586l0.66601 0.8457s1.3305-0.17197 2.1641 0.8418c0.82966 1.013 5.1504 0.16796 5.1504 0.16796l1.1641 1.0117 1.8281 0.67578 3.0781 0.10157 1.9199 1.9199c-3.0088 1.3742-9.1062 0.89485-9.4883 0.50781-0.49905-0.50649-3.9883-2.0254-3.9883-2.0254s-2.6592-2.1914-3.1582-1.5156c-0.49906 0.67584-2.8242-0.84518-2.8242-0.33789 0 0.50648-2.1602-1.1797-2.1602-1.1797l-3.3242-1.1816 2.4941-0.50782-0.40625-1.6465c0.0933-0.0633 0.18822-0.12368 0.28125-0.1875zm-23.975 0.47461-1.1582 0.85156 0.49219 0.5 0.49414 0.84375 1.168-1.8535-0.9961-0.3418zm-156.59 9.4551v1.6855h1.332v2.1934h1.002l-0.17188-2.5273-1.332-0.50977v-0.84179h-0.83008zm242.83 0.84179-0.12696 1.5195 1.623 0.11914 0.125-1.3828-1.6211-0.25586zm-1.3359 3.5762-0.31641 0.95703c0.0791 0.0303 0.194 0.0908 0.3086 0.16601l0.20312 0.875c-0.0744 0.11211-0.15646 0.21549-0.2207 0.29102l0.73242 0.68555c0.53352-0.59395 0.73125-1.1708 0.5918-1.7266-0.22015-0.85951-1.1892-1.2122-1.2988-1.248zm-0.31641 0.95703h-0.002v0.006l0.002-0.006zm-28.76 2.0449 7.3223 7.3223c-0.33982 1.2356-1.4826 1.9492-2.1348 1.4512-0.66906-0.50728 0.82684 0.84135 1.1621 1.5195 0.33139 0.67267 1.3276 0.67267 1.6621 0 0.22148-0.45599 0.22431-1.2783 0.30078-1.9805l3.3867 3.3848c-0.4492 0.87144-0.88059 1.7448-0.69532 2.3086h0.002l1.4961 0.67383 0.16602 2.8672c1.1194 1.1352 3.6299 1.092 5.6367 0.75586l0.68164 0.68164c-6.1387 5.9535-12.891 11.265-20.127 15.883v-1.625c2.9927-2.1929 3.1579-6.0749 0.33203-6.4121-2.1435-0.25602-1.1614-2.5319 0.83399-2.8691l1.1621-0.50391v-1.5195l3.8223-3.541v-2.6992l-8.3086-6.9199c-1.6916-0.62311-1.8091-2.6896-1.2109-4.7148 1.5349-1.3078 3.0446-2.6533 4.5098-4.0625zm-204.1 0.33984 1.168 3.0371 0.66602 1.5195 1.3301 1.8516 1.8262 1.6855 0.66601-1.1758-1.168-2.5293-1.1582-0.84961-0.83789-2.3613-2.4922-1.1777zm-32.506 2.4629c10.1 20.18 5.7418 46.198 18.842 65.232 4.0966 5.9523 9.8204 11.656 15.109 16.441l-0.24805 0.25c-4.7876-2.2329-9.1066-5.5678-13.465-9.1914-22.92-19.056-57.391-21.489-71.111-52.553 3.7215 22.806 21.828 43.006 41.365 55.803 18.587 12.174 42.398 10.817 63.039 17.627-19.07-15.37-21.963-38.46-30.466-58.71-5.284-12.58-13.892-23.89-23.068-34.88zm334.31 0c-9.1766 10.988-17.784 22.304-23.068 34.885-8.5034 20.245-11.391 43.34-30.463 58.725 20.641-6.8098 44.452-5.4528 63.039-17.627 19.538-12.797 37.644-32.996 41.365-55.803-13.72 31.063-48.191 33.496-71.111 52.553-4.3582 3.6236-8.6772 6.9585-13.465 9.1914l-0.24805-0.25c5.289-4.7855 11.013-10.489 15.109-16.441 13.1-19.034 8.7414-45.052 18.842-65.232zm-260.74 7.3027c1.4706 0.0323 3.4276 1.6844 3.6543 2.3809 0.12635 0.38173 0.58182 0.8601 1.1191 1.2617l-2.459 2.459c-1.5499-1.5983-3.0425-3.2366-4.498-4.9004h0.6875c0.25902-0.89722 0.82761-1.2158 1.4961-1.2012zm98.438 9.3106c1.0394 0.0583 2.0986 0.32738 2.7852 0.83398 1.8262 1.3477 4.3223 0.50781 4.3223 0.50781l1.834 2.2324c-3.8632 0.55853-7.7974 0.89494-11.795 0.97657v-3.9863c0.5574-0.42664 1.6885-0.62981 2.8535-0.56445zm86.436 2.4199 20.959 20.959c-11.693 11.413-25.138 21.024-39.852 28.473-21.215 10.744-45.099 16.955-70.398 17.266v-29.713c12.128-0.17911 23.979-2.0194 35.312-5.377l2.9102 0.88476 0.83007 2.7012 1.332-0.16993 0.99609-0.84179 3.9883-0.16797 1.9961-1.8594 2.1621-0.33398 15.672-13.328c8.6238-5.1547 16.711-11.326 24.092-18.492zm-75.52 4.8906 0.34961 0.77735 2.8242 0.84179 1.9941 0.50782 0.66602 2.8672 1.4941 0.16992 0.5 1.8574c1.8301 1.3485-0.5 4.2168-0.5 4.2168v3.7109l1.3301 0.67578-0.16602 1.3516 2.1641 2.1895 2.4902 0.17187 4.1348 4.416c-9.925 2.6823-20.323 4.2003-31.051 4.3672v-26.91c4.6524-0.0897 9.2487-0.49802 13.77-1.2109zm-40.189 2.7461-1.0039 0.84375-0.49218 0.41992 0.52344 0.38281 1.168 0.8418 0.58008-0.81836-0.64258-0.46875 0.50196-0.42188-0.63477-0.77929zm11.846 12.086-0.44726 0.90625 1.043 0.52539-0.34571 0.34961 0.71289 0.71485 0.83008-0.8418 0.48633-0.49414-0.61914-0.31836-1.6602-0.8418zm-84.174 8.5469 1.332 2.0273 0.16406 1.5195 1.6621 0.50782 0.66601 1.0098 1.166-0.67578-0.83789-2.1934-2.1543-1.8535-1.998-0.34179zm-37.45 1.9c12.468 16.782 16.02 41.163 38.803 49.746 4.0325 1.5192 8.6594 1.7693 12.15 3.9824-4.3869 0.67371-8.2274-0.68231-12.314-1.5527-29.363-6.2534-65.237 1.802-87.232-23.236 8.3472 16.363 25.538 29.273 42.057 34.725 25.597 8.4472 52.268-0.97368 76.324-6.9414 3.4658-0.85977 7.6746-0.58168 10.893-1.7578-13.39-2.73-26.3-6.79-36.67-16.27-14.89-13.62-28.08-28.11-44.01-38.7zm268.35 0c-15.925 10.587-29.117 25.082-44.01 38.703-10.365 9.4802-23.278 13.537-36.67 16.262 3.218 1.1761 7.4268 0.89805 10.893 1.7578 24.056 5.9677 50.727 15.389 76.324 6.9414 16.519-5.4514 33.709-18.361 42.057-34.725-21.996 25.038-57.87 16.983-87.232 23.236-4.0871 0.87043-7.9276 2.2264-12.314 1.5527 3.491-2.2132 8.1178-2.4633 12.15-3.9824 22.783-8.5829 26.334-32.965 38.803-49.746zm-158.35 54.318c-22.537 0-42.666 10.895-62.441 19.1-17.891 7.4224-41.624 5.9533-57.473-4.9766 7.8416 9.8399 18.336 15.896 29.166 20.008 20.136 8.0357 43.632 1.8706 60.762-9.0781 12.343-7.8896 22.924-19.072 37.613-19.072 2.5866 0 5.1873 0.30468 7.7969 0.84961-20.627 8.2653-39.383 22.819-54.021 36.805 2.6938 3.0779 6.1802 5.9552 9.4668 8.6074 16.33-16.877 34.845-35.147 53.305-42.689 18.459 7.5424 36.974 25.812 53.305 42.689 3.2865-2.6523 6.773-5.5295 9.4668-8.6074-14.639-13.986-33.395-28.539-54.021-36.805 2.6096-0.54493 5.2103-0.84961 7.7969-0.84961 14.69 0 25.27 11.183 37.613 19.072 17.129 10.949 40.626 17.114 60.762 9.0781 10.83-4.1118 21.324-10.168 29.166-20.008-15.848 10.93-39.582 12.399-57.473 4.9766-19.776-8.2043-39.904-19.1-62.441-19.1-8.1974 0-16.294 1.3728-24.174 3.752-7.88-2.3791-15.976-3.752-24.174-3.752z"/>
</svg>
